<?xml version="1.0" standalone="no"?>
<!DOCTYPE svg PUBLIC "-//W3C//DTD SVG 1.1//EN" "http://www.w3.org/Graphics/SVG/1.1/DTD/svg11.dtd">
<svg xmlns="http://www.w3.org/2000/svg">
<metadata>Copyright (C) 2020 by original authors @ fontello.com</metadata>
<defs>
<font id="fontello" horiz-adv-x="1000" >
<font-face font-family="fontello" font-weight="400" font-stretch="normal" units-per-em="1000" ascent="850" descent="-150" />
<missing-glyph horiz-adv-x="1000" />
<glyph glyph-name="fb" unicode="&#xe800;" d="M567 500h40v69c-7 1-31 3-58 3-57 0-96-36-96-102v-61h-63v-77h63v-193h77v193h61l9 77h-70v53c0 22 6 38 37 38z" horiz-adv-x="1000" />

<glyph glyph-name="basket" unicode="&#xe801;" d="M279 171h32 543c13 0 24 9 28 21l117 393c2 8 1 18-5 26-5 7-14 12-24 12h-754l-39 133c-4 13-16 22-29 22h-118c-17 0-30-14-30-30 0-16 13-30 30-30h96l40-133c0 0 0-1 0-1l106-354c-61-4-108-54-108-115 0-64 52-116 115-116h30c13-44 53-77 102-77 48 0 88 33 101 77h157c13-44 54-77 102-77 48 0 89 33 102 77h38c17 0 30 13 30 29 0 17-13 30-30 30h-38c-13 44-54 76-102 76-48 0-89-32-102-76h-157c-13 44-53 76-101 76-49 0-89-32-102-76h-30c-31 0-56 25-56 57 0 31 25 56 56 56z m435 392h217l-41-137h-176v137z m0-196h158l-41-137h-117v137z m-219 196h160v-137h-160v137z m0-196h160v-137h-160v137z m-59-137h-103l-40 137h143v-137z m-202 333h202v-137h-161l-41 137z m537-488c26 0 47-21 47-47 0-25-21-46-47-46-26 0-46 21-46 46 0 26 20 47 46 47z m-360 0c25 0 46-21 46-47 0-25-21-46-46-46-26 0-47 21-47 46 0 26 21 47 47 47z" horiz-adv-x="1000" />

<glyph glyph-name="heart" unicode="&#xe802;" d="M1 532q7 111 75 183 94 80 212 70t190-98q38 49 92 79 113 43 217 3t150-140q30-106 10-199t-78-174q-68-94-174-184-53-49-124-103t-93-57q-13 2-28 12t-35 25-24 20q-264 199-348 357-49 96-42 206z" horiz-adv-x="955" />

<glyph glyph-name="heart-empty" unicode="&#xe803;" d="M1 521q7 115 79 191l2 0 2 2q88 76 199 76t191-70q32 28 67 45l2 2 2 0q56 23 117 23 88 2 161-43t110-124l0-2 2-4q30-106 10-202t-80-175q-62-88-162-172 0-2-2-2-49-45-107-90-34-25-59-41-33-23-55-23l-6-2-5 2q-28 3-59 29-10 6-21 16t-16 13l-2 0q-246 188-328 340l0 2q-49 94-42 209z m85-10q-6-86 33-162 74-135 303-310l2 0q6-6 18-16t19-14q8-6 15-10 8 2 14 6 22 14 51 37 58 43 105 88 94 80 151 161 107 142 58 298-27 57-78 88t-113 29q-43 0-86-17-39-22-68-57l-32-43-35 43q-52 65-141 73t-161-53q-49-55-55-141z" horiz-adv-x="953" />

<glyph glyph-name="instagram" unicode="&#xe804;" d="M495 466c-61 0-111-50-111-111 0-61 50-111 111-111 62 0 111 50 111 111 0 62-50 111-111 111z m0-183c-40 0-72 32-72 72 0 40 32 72 72 72 40 0 72-32 72-72 0-40-32-72-72-72z m89 287c-40 2-138 2-178 0-35-1-66-10-91-35-42-41-36-98-36-180 0-84-5-139 36-180 42-42 99-36 180-36 84 0 112 0 142 11 40 16 70 51 73 116 2 40 2 138 0 178-3 76-44 122-126 126z m63-367c-27-28-65-25-152-25-91 0-127-2-153 25-31 30-25 79-25 152 0 100-10 172 90 177 23 1 29 1 87 1l1 0c96 0 172 10 176-90 1-23 2-30 2-88 0-89 1-125-26-152z m-36 242c14 0 26 11 26 26 0 14-12 26-26 26-15 0-26-12-26-26 0-15 11-26 26-26z" horiz-adv-x="1000" />

<glyph glyph-name="left-arrow" unicode="&#xe805;" d="M115 354h623l-239-228c-12-12-13-32-1-44 12-13 32-13 44-1l273 260c12 11 18 27 18 44 0 16-6 32-18 44l-273 260c-6 5-13 8-21 8-8 0-17-3-23-9-12-13-11-33 1-45l240-227h-624c-18 0-32-14-32-31 0-17 14-31 32-31z" horiz-adv-x="1000" />

<glyph glyph-name="right-arrow" unicode="&#xe806;" d="M17 431l348 400c22 25 58 25 80 0 22-25 22-67 0-92l-308-354 308-353c22-26 22-67 0-92-22-26-58-26-80 0l-348 399c-11 13-17 30-17 46 0 17 6 34 17 46z" horiz-adv-x="462" />

<glyph glyph-name="search" unicode="&#xe807;" d="M923-61l-231 248c60 72 92 164 92 259 0 223-176 404-392 404-216 0-392-181-392-404 0-222 176-403 392-403 81 0 159 25 225 73l233-250c9-10 22-16 36-16 14 0 26 5 36 15 20 20 21 53 1 74z m-531 806c160 0 290-134 290-299 0-164-130-298-290-298-160 0-290 134-290 298 0 165 130 299 290 299z" horiz-adv-x="938" />

<glyph glyph-name="user" unicode="&#xe808;" d="M493 368c66 0 123 24 170 71 47 47 71 104 71 170 0 66-24 124-71 171-47 46-104 70-170 70-66 0-124-24-170-71-47-46-71-104-71-170 0-66 24-123 71-170 46-47 104-71 170-71z m-129 370c36 36 78 53 129 53 51 0 93-17 129-53 36-36 53-78 53-129 0-51-17-93-53-129-36-36-78-53-129-53-51 0-93 17-129 53-36 36-53 78-53 129 0 51 17 93 53 129z m550-657c-1 20-4 41-8 63-4 23-9 44-15 64-7 20-16 40-26 59-12 20-25 37-40 51-15 15-34 27-56 36-22 9-47 13-73 13-10 0-20-4-39-17-11-7-25-16-40-26-14-8-31-16-53-23-22-7-43-11-65-11-21 0-43 4-64 11-22 7-40 15-53 23-15 10-29 19-41 26-19 13-29 17-39 17-26 0-50-4-72-13-22-9-41-21-57-36-15-14-28-31-39-51-11-19-20-39-26-59-7-20-12-41-16-64-4-22-7-43-8-63-1-19-2-39-2-59 0-52 17-95 49-126 33-30 75-46 127-46h482c52 0 95 16 127 46 33 31 49 74 49 126 0 20 0 40-2 59z m-87-142c-22-21-50-30-87-30h-482c-36 0-65 9-86 30-21 20-31 47-31 83 0 19 0 37 2 55 1 17 3 37 7 57 3 20 8 39 14 56 5 16 12 33 21 48 8 15 18 28 29 38 10 10 22 18 37 23 14 6 30 9 47 9 2-1 5-3 11-7 12-8 26-16 41-26 18-11 40-21 67-30 27-9 55-13 82-13 28 0 56 4 83 13 26 9 49 19 66 30 16 10 29 18 41 26 6 4 10 6 12 7 17 0 32-3 46-9 15-5 28-13 38-23 10-10 20-23 29-38 9-15 16-32 21-48 5-17 10-36 14-56 3-20 6-40 7-57v0c1-18 2-36 2-55 0-36-10-63-31-83z" horiz-adv-x="1000" />

<glyph glyph-name="vk" unicode="&#xe809;" d="M708 258c-1 2-9 18-43 50-37 34-32 28 12 86 27 36 37 58 34 67-3 9-23 6-23 6l-65 0c0 0-5 1-8-2-4-2-6-7-6-7 0 0-10-27-24-50-29-50-41-52-45-49-11 7-9 29-9 44 0 48 8 67-14 73-7 1-12 2-30 3-23 0-43-1-54-6-8-4-13-12-10-12 4-1 14-3 19-10 7-9 7-29 7-29 0 0 4-56-9-63-9-5-21 5-47 49-13 23-23 48-23 48 0 0-2 5-6 8-4 3-10 4-10 4l-61-1c0 0-10 0-13-4-3-4 0-11 0-11 0 0 48-113 103-171 50-52 107-48 107-48h26c0 0 8 0 12 5 4 4 4 11 4 11 0 0-1 35 15 40 16 5 37-34 58-48 17-12 29-9 29-9l58 1c0 0 30 1 16 25z" horiz-adv-x="1000" />

<glyph glyph-name="shares" unicode="&#xe80a;" d="M994 487l-52 70-29-204c-3-19-12-37-25-50l-359-359c-32-32-73-49-118-49-13 0-26 2-39 5 20-30 53-50 91-50h430c59 0 107 48 107 107v512c0 7-2 13-6 18z m-389-124c16 0 29 13 29 30 0 16-13 29-29 29-17 0-30-13-30-29 0-17 13-30 30-30z m-332 0c16 0 29 13 29 30 0 16-13 29-29 29-16 0-29-13-29-29 0-17 13-30 29-30z m214-378l359 359c5 5 8 11 9 17l41 290c1 9-2 18-8 25l-62 62-83-83 20-21c12-11 12-30 0-41-5-6-13-9-20-9-8 0-15 3-21 9l-83 83c-11 11-11 30 0 41 12 12 30 12 42 0l20-21 83 83-62 62c-6 7-16 10-25 9l-290-42c-6-1-12-3-16-8l-360-359c-41-42-41-110 0-152l304-304c21-21 49-31 76-31 28 0 55 10 76 31z m118 496c48 0 88-40 88-88 0-49-40-88-88-88-49 0-88 39-88 88 0 48 39 88 88 88z m-332-176c-48 0-88 39-88 88 0 48 40 88 88 88 49 0 88-40 88-88 0-49-39-88-88-88z m97-149c-3 0-6 1-9 2-16 5-24 21-19 37l138 414c5 15 22 24 37 19 16-6 24-22 19-37l-138-415c-4-12-16-20-28-20z m518 644c11 11 11 30 0 41-12 12-30 12-42 0l-62-62 42-41 62 62z" horiz-adv-x="1000" />

<glyph glyph-name="down-arrow" unicode="&#xe80b;" d="M922 239v-272c0-21-18-39-39-39h-766c-21 0-39 18-39 39v272h-78v-272c0-64 53-117 117-117h766c64 0 117 53 117 117v272h-78z m-234 151l-149-149v609h-78v-609l-148 149-56-56 243-242 243 242-55 56z" horiz-adv-x="1000" />

<glyph glyph-name="form-mail" unicode="&#xe80c;" d="M711-69h-1c-9 0-17-8-17-18 0-10 8-18 17-18h1c9 0 17 8 17 18 0 10-8 18-17 18z m238 574l-126 125v104c0 39-32 71-71 71h-504c-39 0-71-32-71-71v-103l-126-126c-4-4-5-8-5-13v-455c0-78 63-142 141-142h444c10 0 18 8 18 18 0 10-8 18-18 18h-444c-21 0-41 6-57 16l33 34h273c10 0 18 8 18 17 0 10-8 18-18 18h-237l212 212c49 49 129 49 178 0l281-281c-16-10-36-16-57-16h-24c-9 0-17-8-17-18 0-10 8-18 17-18h24c37 0 70 14 95 37 0 0 1 1 1 1 1 0 1 1 1 1 27 26 45 62 45 103v455c0 5-2 9-6 13z m-126 75l89-88-89-88v176z m-646 1v-177l-89 88 89 89z m-73-610c-14 18-23 41-23 66v412l250-250-227-228z m510 282c-63 63-165 63-228 0l-30-29-144 144v366c0 19 16 35 36 35h504c20 0 36-16 36-35v-366l-144-144-30 29z m305-216c0-25-8-48-23-66l-227 228 250 250v-412z m-408 604h-179c-10 0-17-8-17-18 0-9 7-17 17-17h179c9 0 17 8 17 17 0 10-8 18-17 18z m94-5c-3 3-7 5-12 5-5 0-9-2-13-5-3-3-5-8-5-13 0-4 2-9 5-12 4-3 8-5 13-5 5 0 9 2 12 5 4 3 6 8 6 12 0 5-2 10-6 13z m63-123h-336c-10 0-17-8-17-17 0-10 7-18 17-18h336c10 0 17 8 17 18 0 9-7 17-17 17z m0-127h-336c-10 0-17-8-17-18 0-10 7-18 17-18h336c10 0 17 8 17 18 0 10-7 18-17 18z" horiz-adv-x="1000" />

<glyph glyph-name="form-tel" unicode="&#xe80d;" d="M621 802c-9 0-15-6-15-15 0-8 6-15 15-15 166 0 301-135 301-301 0-9 7-15 15-15 9 0 15 6 15 15 0 183-148 331-331 331z m0-90c-9 0-15-7-15-15 0-8 6-15 15-15 116 0 211-95 211-211 0-9 6-15 15-15 8 0 15 6 15 15 0 133-108 241-241 241z m0-91c-9 0-15-6-15-15 0-8 6-15 15-15 66 0 120-54 120-120 0-9 7-15 15-15 9 0 15 6 15 15 0 83-67 150-150 150z m243-384c-41 5-82 15-121 29-37 15-80 5-108-23l-48-47c-100 59-183 142-242 242l47 47c28 29 38 71 23 109-14 39-24 79-30 120-7 51-51 89-102 88h-132c-3 0-7 0-10 0-27-2-52-15-69-37-18-21-26-47-24-75 15-137 62-271 137-387 69-107 161-200 269-268 115-75 249-122 386-137 3 0 6 0 9 0 1 0 1 0 1 0 57 0 103 46 102 103v131c2 52-36 97-88 105z m58-104c0 0 0 0 0 0v-132c0-40-32-73-72-73-3 0-5 0-7 0-132 14-261 60-373 133-104 65-193 155-259 258-73 112-119 242-133 374-2 19 4 38 17 53 12 15 30 24 49 26 2 0 4 0 7 0h132c0 0 0 0 0 0 37 0 67-26 73-62 5-43 16-86 31-127 10-26 4-56-16-76l-56-56c-5-5-6-12-2-18 63-112 157-205 269-269 6-4 13-3 18 2l56 56c20 20 50 26 77 16 41-15 83-26 127-31 36-5 63-37 62-74z" horiz-adv-x="1000" />

<glyph glyph-name="form-user" unicode="&#xe80e;" d="M493 368c66 0 123 24 170 71 47 47 71 104 71 170 0 66-24 124-71 171-47 46-104 70-170 70-66 0-124-24-170-71-47-46-71-104-71-170 0-66 24-123 71-170 47-47 104-71 170-71z m-129 370c36 36 78 53 129 53 51 0 93-17 129-53 36-36 53-78 53-129 0-51-17-93-53-129-36-36-78-53-129-53-51 0-93 17-129 53-36 36-53 78-53 129 0 51 17 93 53 129z m550-657c-1 20-4 41-8 63-4 23-9 44-15 64-7 20-16 40-26 59-12 20-25 37-40 51-15 15-34 27-56 36-22 9-47 13-73 13-10 0-20-4-39-17-11-7-25-16-40-26-14-8-31-16-53-23-22-7-43-11-65-11-21 0-43 4-64 11-22 7-40 15-53 23-15 10-29 19-41 26-19 13-29 17-39 17-26 0-50-4-72-13-22-9-41-21-57-36-15-14-28-31-39-51-11-19-20-39-26-59-7-20-12-41-16-64-4-22-7-43-8-63-1-19-2-39-2-59 0-52 17-95 49-126 33-30 75-46 127-46h482c52 0 95 16 127 46 33 31 49 74 49 126 0 20 0 40-2 59z m-87-142c-22-21-50-30-87-30h-482c-36 0-65 9-86 30-21 20-31 47-31 83 0 19 0 37 2 55 1 17 3 37 7 57 3 20 8 39 14 56 5 16 12 33 21 48 8 15 18 28 29 38 10 10 22 18 37 23 14 6 30 9 47 9 2-1 5-3 11-7 12-8 26-16 41-26 18-11 40-21 67-30 27-9 55-13 82-13 28 0 56 4 83 13 26 9 49 19 66 30 16 10 29 18 41 26 6 4 10 6 12 7 17 0 32-3 46-9 15-5 28-13 38-23 10-10 20-23 29-38 9-15 16-32 21-48 5-17 10-36 14-56 3-20 6-40 7-57v0c1-18 2-36 2-55 0-36-10-63-31-83z" horiz-adv-x="1000" />

<glyph glyph-name="exit" unicode="&#xe80f;" d="M705 77c-21 0-39-18-39-39v-110h-559v844h559v-109c0-22 18-40 39-40 22 0 39 18 39 40v148c0 22-17 39-39 39h-637c-21 0-39-17-39-39v-922c0-22 18-39 39-39h637c22 0 39 17 39 39v149c0 21-17 39-39 39z m254 301l-105 105c-15 15-40 15-55 0-15-16-15-40 0-56l38-38-323 0c-22 0-39-17-39-39 0-22 17-39 39-39l323 0-38-38c-15-16-15-40 0-56 15-15 40-15 55 0l105 105c0 0 0 0 0 0 8 8 12 17 12 28 0 11-5 21-12 28z" horiz-adv-x="1000" />

<glyph glyph-name="history" unicode="&#xe810;" d="M303 109l-47-41c15-17 31-33 49-48l40 49c-15 13-29 26-42 40z m-62 98l-58-25c9-21 20-41 32-60l53 34c-10 16-19 33-27 51z m547 511c-65 38-139 58-214 58-213 0-393-158-421-370l-108 108-45-44 180-180 180 180-45 44-97-97c37 197 226 326 423 289 197-37 326-227 289-423-37-197-227-326-423-289-40 7-79 22-115 42l-31-54c203-118 464-49 582 155 117 203 48 463-155 581z m-261-84v-347l139-104 38 50-114 86v315h-63z" horiz-adv-x="1000" />

<glyph glyph-name="lock" unicode="&#xe811;" d="M791 454v105c0 160-130 291-291 291-160 0-291-131-291-291v-105h-107v-604h796v604h-107z m-291 337c128 0 233-104 233-232v-105h-59v105c0 96-78 174-174 174-96 0-174-78-174-174v-105h-58v105c0 128 104 232 232 232z m115-232v-105h-230v105c0 64 51 115 115 115 64 0 115-51 115-115z m-454-650v487h678v-487h-678z m438 293c0 55-45 99-99 99-54 0-99-44-99-99 0-26 11-51 29-69l-27-130h194l-27 130c18 18 29 43 29 69z m-77-33l-17-11 20-96h-50l20 96-17 11c-11 7-18 20-18 33 0 22 18 40 40 40 22 0 40-18 40-40 0-13-7-26-18-33z" horiz-adv-x="1000" />

<glyph glyph-name="google" unicode="&#xe812;" d="M1000 350c0 31-3 63-9 93-2 14-14 24-29 24h-460c-16 0-29-13-29-29v-176c0-16 13-29 29-29h236c-14-30-35-56-59-78l166-165c95 91 155 218 155 360z m-500 266c58 0 112-19 158-53 12-9 28-8 38 3l125 125c6 5 9 13 9 22 0 8-4 15-10 21-90 75-203 116-320 116-172 0-323-87-413-220l172-172c41 93 134 158 241 158z m0-766c112 0 215 37 298 100l-169 169c-38-22-82-35-129-35-107 0-200 65-241 158l-172-172c90-133 241-220 413-220z m-261 458c-3 14-5 28-5 42 0 14 2 28 5 42l-184 184c-35-68-55-145-55-226 0-81 20-158 55-226l184 184z" horiz-adv-x="1000" />

<glyph glyph-name="facebook2" unicode="&#xe813;" d="M694 684h92v159c-16 2-70 7-133 7-132 0-222-83-222-235v-140h-145v-178h145v-447h178v447h139l23 178h-162v122c0 52 14 87 85 87z" horiz-adv-x="1071" />

<glyph glyph-name="vk2" unicode="&#xe814;" d="M1691-53c-2 4-4 8-6 11-29 55-86 122-169 202l-2 2 0 1-1 1h-1c-38 37-62 62-72 75-18 24-22 48-12 73 7 19 33 59 79 120 25 32 44 58 58 78 102 139 146 229 133 268l-6 9c-3 5-12 10-27 15-15 5-34 5-57 2l-255-2c-4 2-10 2-17 0-8-2-12-3-12-3l-4-2-4-3c-3-2-6-5-10-9-3-5-6-10-8-16-28-74-60-142-95-206-22-37-42-70-60-98-19-27-34-48-46-61-13-13-24-23-34-31-10-8-18-12-23-10-5 1-10 2-15 3-8 6-15 13-20 23-5 9-8 21-10 35-2 15-3 27-3 37 0 10 0 25 0 44 1 19 1 32 1 38 0 23 1 49 1 76 1 27 2 48 3 64 0 16 1 32 1 50 0 18-1 32-4 42-2 10-5 19-9 29-4 9-10 17-18 22-8 5-18 9-30 12-31 7-71 11-119 12-110 1-180-6-212-22-12-7-23-16-33-27-11-14-12-21-5-22 36-6 61-19 76-39l5-11c4-8 8-22 12-42 4-21 7-43 8-67 3-44 3-82 0-114-3-32-6-56-8-74-3-18-7-32-12-43-5-11-9-18-11-20-2-2-3-4-4-5-8-3-16-4-24-4-8 0-18 4-30 13-12 8-24 20-37 35-13 15-27 36-43 62-16 27-32 59-49 95l-15 27c-8 17-21 42-36 74-15 33-29 64-41 95-4 12-11 22-21 29l-4 2c-3 3-8 5-14 8-7 3-14 5-21 6l-242-2c-25 0-42-5-51-17l-3-5c-2-4-3-8-3-15 0-7 2-15 5-25 36-86 74-168 116-248 41-80 78-144 108-192 31-49 62-95 94-138 32-43 53-71 63-83 11-13 19-22 25-28l22-22c14-14 35-32 62-52 28-21 58-41 91-60 34-20 73-36 117-49 44-12 87-17 129-15h102c20 2 36 9 47 20l3 5c3 3 5 9 7 17 2 7 3 16 3 25-1 26 1 49 6 70 4 22 9 37 15 48 5 11 12 20 19 27 7 7 12 12 15 13 3 2 5 3 7 3 14 5 31 1 50-14 19-14 37-32 54-53 17-21 37-44 61-71 23-26 44-45 62-58l17-11c12-7 27-14 46-20 19-6 36-8 50-5l226 4c23 0 40 4 53 12 12 7 19 16 22 25 2 9 2 19 0 31-2 11-4 19-6 24z" horiz-adv-x="1700" />

<glyph glyph-name="odnoklassniki" unicode="&#xe815;" d="M500 850c-138 0-250-112-250-250 0-138 112-250 250-250 138 0 250 112 250 250 0 138-112 250-250 250z m0-375c-69 0-125 56-125 125 0 69 56 125 125 125 69 0 125-56 125-125 0-69-56-125-125-125z m332-118c-25 24-64 24-89 0-134-134-352-134-486 0-24 24-64 24-88 0-25-24-25-64 0-88 77-78 176-123 278-134l-179-178c-24-25-24-64 0-89 25-24 64-24 89 0l143 144 143-144c13-12 29-18 45-18 16 0 32 6 44 18 24 25 24 64 0 89l-178 178c101 11 200 56 277 134 25 24 25 64 1 88z" horiz-adv-x="1000" />

<glyph glyph-name="youtube" unicode="&#xe816;" d="M716 463c-5 19-20 34-40 40-35 9-176 9-176 9 0 0-141 0-177-9-19-5-34-21-40-40-9-35-9-109-9-109 0 0 0-73 9-108 6-20 21-35 40-40 36-10 177-10 177-10 0 0 141 0 176 10 20 5 35 20 40 39 10 36 10 109 10 109 0 0 0 74-10 109z m-261-176v135l117-68-117-67z" horiz-adv-x="1000" />

<glyph glyph-name="location" unicode="&#xe817;" d="M0 473q0 156 110 267t267 110 267-110 110-267q0-123-53-193l-324-430-324 430q-53 70-53 193z m219 0q0-66 46-112t112-46 112 46 46 112-46 112-112 46-112-46-46-112z" horiz-adv-x="754" />

<glyph glyph-name="pin" unicode="&#xe818;" d="M500 850c-204 0-369-166-369-369 0-67 30-140 31-143 10-23 29-58 43-79l253-384c10-16 26-25 42-25s32 9 42 25l253 384c14 21 33 56 43 79 1 3 31 76 31 143 0 203-165 369-369 369z m298-495c-9-20-26-54-39-73l-253-383c-5-8-7-8-12 0l-253 383c-12 19-30 53-39 73 0 1-28 68-28 126 0 179 146 326 326 326 180 0 326-147 326-326 0-59-28-125-28-126z m-298 321c-108 0-196-88-196-195 0-108 88-196 196-196 108 0 196 88 196 196 0 107-88 195-196 195z m0-347c-84 0-152 68-152 152s68 152 152 152 152-68 152-152-68-152-152-152z" horiz-adv-x="1000" />

<glyph glyph-name="drop" unicode="&#xe819;" d="M685-89l-654 735c-41 47-41 122 0 169 42 47 109 47 151 0l578-650 579 650c41 47 109 47 150 0 42-47 42-122 0-169l-654-735c-20-23-48-35-75-35-27 0-54 12-75 35z" horiz-adv-x="1667" />

<glyph glyph-name="angle-left" unicode="&#xf104;" d="M350 546q0-7-6-12l-219-220 219-219q6-6 6-13t-6-13l-28-28q-5-5-12-5t-13 5l-260 261q-6 5-6 12t6 13l260 260q5 6 13 6t12-6l28-28q6-5 6-13z" horiz-adv-x="357.1" />
</font>
</defs>
</svg>
