<svg width="13" height="13" viewBox="0 0 13 13" fill="none" xmlns="http://www.w3.org/2000/svg">
<path d="M13 6.50003C13 6.09164 12.9617 5.68288 12.8858 5.28602C12.8516 5.10638 12.6943 4.97656 12.5117 4.97656H6.52539C6.31488 4.97656 6.14453 5.14691 6.14453 5.35742V7.64258C6.14453 7.85309 6.31488 8.02344 6.52539 8.02344H9.59682C9.40545 8.41085 9.14172 8.74699 8.83203 9.0298L10.9846 11.1824C12.2232 10.0024 13 8.34184 13 6.50003Z" fill="#F14942"/>
<path d="M6.50001 3.04688C7.24723 3.04688 7.95799 3.28418 8.55531 3.73346C8.7063 3.84691 8.91943 3.83315 9.05332 3.69812L10.6787 2.07276C10.7542 1.99725 10.7947 1.89348 10.7899 1.78674C10.7851 1.68 10.736 1.58031 10.6541 1.5115C9.4911 0.536707 8.01563 0 6.50001 0C4.26947 0 2.29893 1.13379 1.13403 2.85523L3.36963 5.09082C3.90298 3.88944 5.10299 3.04688 6.50001 3.04688Z" fill="#F14942"/>
<path d="M6.50001 13C7.95396 13 9.2928 12.5125 10.3747 11.7003L8.18166 9.50732C7.6804 9.78956 7.10748 9.95312 6.50001 9.95312C5.10299 9.95312 3.90298 9.11056 3.36963 7.90918L1.13403 10.1448C2.29893 11.8662 4.26947 13 6.50001 13Z" fill="#F14942"/>
<path d="M3.10233 7.04864C3.07315 6.8689 3.04687 6.68789 3.04687 6.50008C3.04687 6.31226 3.07315 6.13125 3.10233 5.95151L0.712461 3.56165C0.260305 4.44473 0 5.44169 0 6.50008C0 7.55846 0.260305 8.55542 0.712486 9.43848L3.10233 7.04864Z" fill="#F14942"/>
</svg>
