<svg width="259" height="65" viewBox="0 0 259 65" fill="none" xmlns="http://www.w3.org/2000/svg">
<path d="M87.9006 38.0513V17.764H88.3094L102.108 33.3075V17.764H104.152V38.1522H103.641L90.047 22.7097V38.1522H87.9006V38.0513Z" fill="white"/>
<path d="M121.732 33.1055L123.367 34.0139C122.856 35.0233 122.243 35.9316 121.528 36.5372C120.812 37.1428 119.994 37.6475 119.177 38.0512C118.257 38.354 117.235 38.5559 116.111 38.5559C113.657 38.5559 111.715 37.7484 110.285 36.1335C108.854 34.5186 108.138 32.7018 108.138 30.6832C108.138 28.7655 108.751 27.0497 109.876 25.5357C111.409 23.618 113.351 22.7096 115.906 22.7096C118.461 22.7096 120.608 23.7189 122.141 25.6366C123.265 27.0497 123.776 28.7655 123.776 30.7841H110.08C110.08 32.5 110.693 34.0139 111.818 35.1242C112.942 36.2344 114.271 36.84 115.906 36.84C116.724 36.84 117.439 36.7391 118.155 36.4363C118.87 36.1335 119.483 35.8307 119.994 35.326C120.506 34.8214 121.119 34.1149 121.732 33.1055ZM121.732 29.0683C121.425 28.059 121.119 27.2515 120.608 26.545C120.097 25.9394 119.483 25.4347 118.666 25.031C117.848 24.6273 116.928 24.4254 116.111 24.4254C114.577 24.4254 113.351 24.9301 112.227 25.8385C111.409 26.545 110.796 27.5543 110.489 28.9674H121.732V29.0683Z" fill="white"/>
<path d="M127.251 23.0125H129.193V30.0777C129.193 31.7935 129.296 33.0047 129.5 33.6103C129.807 34.5187 130.318 35.2252 131.135 35.8308C131.953 36.3354 132.873 36.6382 133.997 36.6382C135.122 36.6382 136.041 36.3354 136.757 35.8308C137.472 35.3261 138.086 34.6196 138.29 33.8121C138.495 33.2066 138.597 31.9954 138.597 30.0777V23.0125H140.641V30.3805C140.641 32.5 140.437 34.014 139.925 35.1243C139.414 36.1336 138.699 37.042 137.677 37.5466C136.655 38.1522 135.428 38.455 133.997 38.455C132.566 38.455 131.238 38.1522 130.318 37.5466C129.296 36.941 128.58 36.1336 128.069 35.0233C127.558 33.9131 127.354 32.3991 127.354 30.1786V23.0125H127.251Z" fill="white"/>
<path d="M144.218 23.0124H146.262V25.2329C146.876 24.3245 147.489 23.7189 148.204 23.3152C148.818 22.9115 149.533 22.7096 150.249 22.7096C150.76 22.7096 151.373 22.9115 151.986 23.2143L150.964 24.8292C150.555 24.6273 150.249 24.5264 149.942 24.5264C149.329 24.5264 148.613 24.8292 148 25.3338C147.387 25.8385 146.978 26.6459 146.569 27.7562C146.365 28.6646 146.16 30.3804 146.16 33.0046V38.0512H144.116V23.0124H144.218Z" fill="white"/>
<path d="M160.878 22.6088C163.229 22.6088 165.171 23.4162 166.704 25.1321C168.135 26.646 168.851 28.4628 168.851 30.5824C168.851 32.7019 168.135 34.5187 166.602 36.1336C165.069 37.7485 163.229 38.455 160.878 38.455C158.528 38.455 156.586 37.6476 155.155 36.1336C153.622 34.5187 152.906 32.7019 152.906 30.5824C152.906 28.4628 153.622 26.646 155.053 25.1321C156.483 23.5172 158.425 22.6088 160.878 22.6088ZM160.776 24.5265C159.141 24.5265 157.71 25.1321 156.586 26.3432C155.461 27.5544 154.848 28.9675 154.848 30.6833C154.848 31.7936 155.155 32.8029 155.666 33.7113C156.177 34.6196 156.892 35.4271 157.812 35.9318C158.732 36.4364 159.754 36.7392 160.776 36.7392C161.901 36.7392 162.82 36.4364 163.74 35.9318C164.66 35.4271 165.376 34.7206 165.887 33.7113C166.398 32.8029 166.704 31.7936 166.704 30.6833C166.704 28.9675 166.091 27.5544 164.967 26.3432C163.843 25.1321 162.412 24.5265 160.776 24.5265Z" fill="white"/>
<path d="M192.666 21.0948L191.03 22.6088C189.906 21.4985 188.577 20.6911 187.249 20.0855C185.92 19.4799 184.591 19.1771 183.262 19.1771C181.627 19.1771 180.094 19.5808 178.663 20.3883C177.232 21.1957 176.108 22.205 175.29 23.6181C174.472 24.9302 174.064 26.3432 174.064 27.8572C174.064 29.3712 174.472 30.8852 175.29 32.1973C176.108 33.6103 177.232 34.6196 178.765 35.4271C180.196 36.2345 181.832 36.6383 183.569 36.6383C185.716 36.6383 187.453 36.0327 188.986 34.8215C190.417 33.6103 191.337 32.0963 191.644 30.1786H185V28.2609H193.892C193.892 31.3898 192.972 33.9131 191.03 35.7299C189.191 37.5467 186.635 38.556 183.467 38.556C179.685 38.556 176.619 37.2439 174.37 34.7206C172.633 32.7019 171.815 30.4814 171.815 27.8572C171.815 25.9395 172.326 24.1227 173.246 22.5078C174.268 20.8929 175.597 19.5808 177.334 18.5715C179.072 17.6631 181.014 17.1584 183.16 17.1584C184.898 17.1584 186.533 17.4612 188.066 18.0668C189.702 18.7734 191.133 19.7827 192.666 21.0948Z" fill="white"/>
<path d="M212.699 23.0125V38.0513H210.757V35.4271C209.939 36.4364 209.019 37.1429 207.997 37.6476C206.975 38.1522 205.851 38.3541 204.624 38.3541C202.478 38.3541 200.638 37.5466 199.105 36.0327C197.572 34.5187 196.856 32.601 196.856 30.3805C196.856 28.2609 197.674 26.3432 199.207 24.8292C200.74 23.3153 202.58 22.5078 204.727 22.5078C205.953 22.5078 207.077 22.8106 208.099 23.3153C209.122 23.8199 210.041 24.6274 210.757 25.6367V22.9115H212.699V23.0125ZM204.829 24.5264C203.704 24.5264 202.682 24.8292 201.762 25.3339C200.843 25.8386 200.127 26.646 199.514 27.5544C199.003 28.4628 198.696 29.573 198.696 30.5823C198.696 31.6926 199.003 32.7019 199.514 33.6103C200.025 34.6196 200.843 35.3261 201.762 35.8308C202.682 36.3355 203.704 36.6383 204.727 36.6383C205.851 36.6383 206.771 36.3355 207.793 35.8308C208.713 35.3261 209.53 34.6196 210.041 33.6103C210.553 32.7019 210.859 31.6926 210.859 30.4814C210.859 28.7656 210.246 27.2516 209.122 26.1414C207.895 25.132 206.464 24.5264 204.829 24.5264Z" fill="white"/>
<path d="M217.094 23.0125H219.036V25.6367C219.751 24.6274 220.467 24.0218 221.182 23.5171C222.204 22.9115 223.227 22.6087 224.351 22.6087C225.066 22.6087 225.782 22.7097 226.497 23.0125C227.213 23.3153 227.724 23.719 228.133 24.1227C228.541 24.6274 228.95 25.233 229.257 26.1414C229.87 24.9302 230.688 24.0218 231.71 23.4162C232.732 22.8106 233.754 22.5078 234.878 22.5078C235.901 22.5078 236.82 22.8106 237.638 23.3153C238.456 23.8199 239.069 24.5264 239.478 25.5358C239.887 26.4441 240.091 27.8572 240.091 29.7749V37.9504H238.047V29.7749C238.047 28.16 237.945 27.0497 237.74 26.4442C237.536 25.8386 237.127 25.3339 236.514 25.0311C235.901 24.6274 235.287 24.5264 234.47 24.5264C233.55 24.5264 232.63 24.8292 231.914 25.3339C231.097 25.8386 230.586 26.646 230.177 27.5544C229.768 28.4628 229.666 29.9768 229.666 32.1973V38.0513H227.724V30.3805C227.724 28.5637 227.622 27.3525 227.417 26.646C227.213 26.0404 226.804 25.4348 226.191 25.132C225.577 24.7283 224.964 24.5264 224.146 24.5264C223.227 24.5264 222.409 24.8292 221.591 25.3339C220.773 25.8386 220.262 26.646 219.854 27.5544C219.445 28.4628 219.24 29.8758 219.24 31.7935V38.1522H217.298V23.0125H217.094Z" fill="white"/>
<path d="M256.854 33.1055L258.489 34.0139C257.978 35.0233 257.365 35.9316 256.649 36.5372C255.934 37.1428 255.116 37.6475 254.298 38.0512C253.378 38.354 252.356 38.5559 251.232 38.5559C248.779 38.5559 246.837 37.7484 245.406 36.1335C243.975 34.5186 243.26 32.7018 243.26 30.6832C243.26 28.7655 243.873 27.0497 244.997 25.5357C246.53 23.618 248.472 22.7096 251.028 22.7096C253.583 22.7096 255.729 23.7189 257.262 25.6366C258.387 27.0497 258.898 28.7655 258.898 30.7841H245.304C245.304 32.5 245.917 34.0139 247.041 35.1242C248.166 36.2344 249.494 36.84 251.13 36.84C251.947 36.84 252.663 36.7391 253.378 36.4363C254.094 36.1335 254.707 35.8307 255.218 35.326C255.729 34.8214 256.24 34.1149 256.854 33.1055ZM256.854 29.0683C256.547 28.059 256.24 27.2515 255.729 26.545C255.218 25.9394 254.605 25.4347 253.787 25.031C252.97 24.6273 252.05 24.4254 251.232 24.4254C249.699 24.4254 248.472 24.9301 247.348 25.8385C246.53 26.545 245.917 27.5543 245.61 28.9674H256.854V29.0683Z" fill="white"/>
<path d="M33.116 19.8836C31.6851 19.0762 30.1519 18.8743 28.4144 19.278C27.1879 19.5808 26.1658 20.2874 25.4503 21.1957C25.2459 21.4985 25.0414 21.9023 24.837 22.2051C24.1216 21.7004 23.4061 21.3976 22.6906 21.1957C20.1354 20.5901 17.2735 21.9023 16.047 24.3246C15.0249 26.2423 15.1271 28.3619 16.1492 30.4815C16.9669 32.1973 18.2956 33.6103 20.2376 34.8215C22.384 36.2346 25.0414 37.3448 28.1077 38.1523C28.3122 38.1523 28.4144 38.2532 28.6188 38.1523C28.9254 38.1523 29.1298 37.9504 29.2321 37.8495C31.9917 35.4271 33.8315 33.1057 35.058 30.5824C36.0801 28.3619 36.489 26.3433 36.0801 24.4256C35.8757 22.5078 34.8536 20.8929 33.116 19.8836Z" fill="white"/>
<path d="M76.964 35.1242L76.3508 35.2252C76.3508 35.6289 76.3508 36.0326 76.2486 36.5373C76.1464 36.941 76.1464 37.3447 76.0442 37.7485C75.8397 38.5559 75.5331 39.3634 75.1243 40.0699C74.6132 40.7764 74.1022 41.382 73.5911 41.9876C73.2845 42.2904 72.9779 42.5932 72.6712 42.795L72.4668 42.9969L72.1602 43.1988L71.8535 43.4006H71.5469C71.1381 43.6025 70.8314 43.7034 70.4226 43.9053C70.0138 44.0062 69.6049 44.1071 69.2983 44.2081C68.4806 44.4099 67.6629 44.4099 66.8453 44.4099C66.0276 44.309 65.2099 44.2081 64.4944 43.9053C64.0856 43.8043 63.779 43.6025 63.3701 43.4006C63.0635 43.1988 62.6546 42.9969 62.348 42.795L60.8149 41.7857L60.5082 43.6025C60.406 44.0062 60.3038 44.6118 60.2016 45.0155C60.0994 45.5202 59.895 46.0248 59.6906 46.4286C59.4861 46.9332 59.2817 47.337 58.9751 47.8416C58.6685 48.2453 58.464 48.75 58.1574 49.1537C58.0552 49.3556 57.8508 49.5575 57.6464 49.7593C57.4419 49.9612 57.3397 50.163 57.1353 50.3649C56.9309 50.5668 56.8287 50.7686 56.6243 50.8696L56.011 51.3742C55.8066 51.5761 55.6022 51.677 55.3977 51.778C55.1933 51.8789 54.9889 52.0807 54.7845 52.1817L54.069 52.5854L53.4558 52.8882C52.9447 53.0901 52.5359 53.2919 52.0248 53.3929C51.5138 53.4938 51.0027 53.5947 50.4917 53.6957C49.9806 53.7966 49.4696 53.7966 48.9585 53.7966C48.6519 53.7966 48.4475 53.7966 48.1408 53.7966C47.8342 53.7966 47.6298 53.7966 47.4254 53.6957C47.221 53.6957 46.9143 53.5947 46.7099 53.5947C46.5055 53.5947 46.1989 53.4938 45.9944 53.3929C45.4834 53.2919 44.9723 53.0901 44.5635 52.8882C44.0524 52.6863 43.6436 52.4845 43.1326 52.1817C42.7237 51.9798 42.2127 51.677 41.8038 51.3742L40.9861 50.7686L40.2707 51.5761C39.6574 52.2826 39.0442 53.0901 38.3287 53.7966C38.0221 54.0994 37.6132 54.5031 37.3066 54.8059L36.2845 55.8152C35.9779 56.118 35.569 56.4208 35.1602 56.7236C34.7513 57.0264 34.4447 57.3292 34.0359 57.632C33.627 57.9348 33.2182 58.2376 32.8093 58.5404L31.5828 59.3478C30.7652 59.8525 29.9475 60.3571 29.0276 60.7609C28.6187 60.9627 28.1077 61.1646 27.6989 61.3665C27.29 61.5683 26.779 61.7702 26.3701 61.8711C25.8591 61.972 25.4502 62.1739 24.9392 62.2748L23.7127 62.5776L22.2817 62.7795L20.8508 62.8804C20.3397 62.8804 19.9309 62.7795 19.4198 62.7795C19.011 62.6786 18.5 62.6786 18.0911 62.5776C17.5801 62.4767 17.1712 62.2748 16.6602 62.1739H16.558L16.3535 62.073L16.0469 61.9721C15.8425 61.8711 15.6381 61.7702 15.4337 61.6693C13.6961 60.9627 12.0607 59.8525 10.732 58.5404C10.1187 57.9348 9.50549 57.2283 9.09665 56.5217C8.38118 55.1087 7.87013 53.5947 7.5635 51.9798C7.15466 49.2547 7.15466 46.4286 7.5635 43.8044L7.66571 43.0978L7.15466 42.6941C5.82593 41.9876 4.59941 40.8773 3.67952 39.7671C3.37289 39.4643 3.16847 39.0606 2.86184 38.6568C2.75963 38.455 2.75963 38.354 2.65742 38.1522C2.55521 37.8494 2.453 37.5466 2.453 37.2438C2.35079 36.941 2.35079 36.6382 2.24858 36.3354C2.24858 36.0326 2.14637 35.7298 2.14637 35.427C2.14637 35.1242 2.14637 34.8214 2.14637 34.6196C2.14637 34.3168 2.14637 34.014 2.24858 33.8121C2.35079 33.5093 2.35079 33.2065 2.453 33.0047L2.55521 32.5L2.65742 32.0963C2.75963 31.8944 2.86184 31.5916 2.96405 31.2888C3.06626 30.986 3.27068 30.7842 3.37289 30.5823C3.98615 29.6739 4.80383 28.7655 5.72372 28.1599L6.43919 27.6553L6.13256 26.8478C6.03035 26.4441 5.92814 26.0404 5.82593 25.5357C5.72372 25.132 5.72372 24.6273 5.72372 24.2236C5.72372 23.8199 5.72372 23.3152 5.72372 22.9115C5.72372 22.5078 5.82593 22.0031 5.92814 21.5994C6.13256 21.1957 6.23477 20.7919 6.43919 20.3882C6.5414 19.9845 6.74582 19.5807 6.95024 19.177C7.15466 18.8742 7.35908 18.4705 7.66571 18.1677L7.87013 17.8649L7.97234 17.764L8.07455 17.663L8.48339 17.1584C8.79002 16.8556 9.09665 16.6537 9.50549 16.3509C9.81212 16.0481 10.221 15.8463 10.6298 15.6444C11.0386 15.4425 11.4475 15.2407 11.8563 15.0388C12.2652 14.837 12.674 14.6351 13.185 14.4332C14.1049 14.1304 14.9226 13.8276 15.8425 13.5248C17.069 13.1211 19.3176 13.0202 19.3176 13.0202C19.3176 13.0202 19.9309 11.5062 20.6464 10.5978C21.0552 10.0932 21.464 9.48758 21.9751 8.98292C22.1795 8.68012 22.3839 8.47826 22.6906 8.2764C22.895 8.07453 23.2016 7.77174 23.406 7.56988C23.9171 7.06522 24.4281 6.66149 24.9392 6.25776C25.5524 5.75311 26.0635 5.45031 26.6768 5.04658C26.9834 4.84472 27.29 4.74379 27.5966 4.54193C27.9033 4.44099 28.2099 4.23913 28.5165 4.1382C29.1298 3.93634 29.743 3.63354 30.4585 3.43168C30.7652 3.33075 31.0718 3.22981 31.4806 3.12888L32.5027 2.92702H32.7071V3.02795H32.8093H33.3204C33.7292 3.02795 34.0359 2.92702 34.4447 2.92702C35.058 2.92702 35.7734 2.92702 36.3867 3.02795C37.1022 3.02795 37.7154 3.22981 38.4309 3.33075C39.0442 3.53261 39.7596 3.63354 40.3729 3.8354C40.6795 3.93634 40.9861 4.03727 41.2928 4.1382C41.5994 4.23913 41.906 4.34006 42.2127 4.54193C42.9281 4.74379 43.5414 5.04658 44.1547 5.34938C45.279 6.0559 46.5055 6.86335 47.4254 7.67081L48.3453 8.47826L49.2651 7.77174C49.4696 7.67081 49.7762 7.46894 49.9806 7.36801C50.2873 7.26708 50.4917 7.06522 50.7983 6.96429C51.1049 6.86335 51.3093 6.76242 51.616 6.66149C51.9226 6.56056 52.2292 6.56056 52.4337 6.45963C52.7403 6.45963 53.0469 6.3587 53.3535 6.3587C53.6602 6.3587 53.9668 6.3587 54.1712 6.3587C54.4779 6.3587 54.7845 6.45963 54.9889 6.45963C55.2955 6.45963 55.5 6.56056 55.8066 6.66149L56.011 6.76242H56.1132L56.2154 6.96429L56.7265 7.16615C56.9309 7.26708 57.1353 7.36801 57.4419 7.56988C57.6464 7.67081 57.953 7.87267 58.1574 8.07453C58.3618 8.2764 58.5663 8.47826 58.7707 8.68013C58.9751 8.88199 59.1795 9.08385 59.2817 9.38665C59.4861 9.58851 59.5884 9.8913 59.7928 10.0932C59.895 10.396 60.0994 10.5978 60.2016 10.9006C60.3038 11.2034 60.406 11.4053 60.5082 11.7081L60.9171 13.0202L62.1436 12.7174C62.4502 12.6165 62.8591 12.5155 63.2679 12.5155C63.6768 12.4146 64.0856 12.4146 64.4944 12.4146C64.9033 12.4146 65.3121 12.4146 65.7209 12.4146C66.1298 12.4146 66.5386 12.5155 66.9475 12.6165C67.3563 12.7174 67.7651 12.8183 68.174 12.9193C68.5828 13.0202 68.9917 13.222 69.2983 13.323C69.7071 13.5248 70.0138 13.7267 70.4226 13.9286C70.7292 14.1304 71.1381 14.4332 71.4447 14.6351C71.7513 14.9379 72.1602 15.2407 72.3646 15.5435C72.6712 15.8463 72.8756 16.1491 73.1823 16.4519C73.3867 16.7547 73.6933 17.1584 73.8977 17.4612C74.1022 17.8649 74.3066 18.1677 74.511 18.5714C74.7154 18.9752 74.8176 19.3789 74.9198 19.7826C75.0221 20.1863 75.1243 20.5901 75.2265 20.9938C75.4309 21.8012 75.4309 22.7096 75.4309 23.618L76.0442 23.7189C76.1464 23.2143 76.1464 22.8106 76.1464 22.3059C76.1464 21.8012 76.1464 21.3975 76.0442 20.8929C76.0442 20.3882 75.9419 19.9845 75.8397 19.4798C75.7375 18.9752 75.6353 18.5714 75.5331 18.1677C75.4309 17.764 75.2265 17.2593 75.022 16.8556C74.8176 16.4519 74.6132 16.0481 74.3066 15.6444C73.9999 15.2407 73.7955 14.837 73.4889 14.4332C73.1823 14.0295 72.8756 13.7267 72.569 13.4239C72.1602 13.0202 71.8535 12.8183 71.4447 12.4146C71.0359 12.1118 70.627 11.809 70.2182 11.6071C69.8093 11.3043 69.4005 11.1025 68.8895 10.9006C68.4806 10.6988 67.9696 10.4969 67.4585 10.396C66.9475 10.295 66.5386 10.0932 66.0276 10.0932C65.5165 9.99224 65.0055 9.99224 64.5966 9.8913C64.0856 9.8913 63.5745 9.8913 63.0635 9.8913C62.9613 9.8913 62.8591 9.8913 62.7569 9.8913V9.79037C62.6547 9.38665 62.4502 9.08385 62.2458 8.78106C62.0414 8.47826 61.837 8.07453 61.6325 7.77174C61.4281 7.46894 61.1215 7.16615 60.9171 6.86335C60.6104 6.56056 60.406 6.25776 60.0994 6.0559C59.7928 5.75311 59.4861 5.55124 59.1795 5.34938C58.8729 5.14752 58.464 4.94565 58.0552 4.74379L57.5442 4.54193L57.2375 4.44099L56.9309 4.34006C56.5221 4.23913 56.1132 4.03727 55.8066 4.03727C55.3977 3.93634 54.9889 3.93634 54.5801 3.8354C54.1712 3.8354 53.7624 3.73447 53.3535 3.8354C52.9447 3.8354 52.5359 3.93634 52.127 3.93634C51.7182 4.03727 51.3093 4.03727 51.0027 4.1382C50.5939 4.23913 50.2872 4.34006 49.8784 4.54193C49.4696 4.64286 49.1629 4.84472 48.7541 5.04658C48.7541 5.04658 48.7541 5.04658 48.6519 5.04658C48.3453 4.74379 48.0386 4.54193 47.6298 4.23913C47.0165 3.73447 46.3011 3.33075 45.6878 2.92702C44.9723 2.52329 44.3591 2.2205 43.6436 1.81677C43.337 1.61491 42.9281 1.51398 42.5193 1.41304C42.1105 1.31211 41.8038 1.11025 41.395 1.00932C40.6795 0.706522 39.8618 0.60559 39.1464 0.403727C38.3287 0.302795 37.6132 0.100932 36.7955 0.100932C35.8756 0 35.058 0 34.2403 0C33.8315 0 33.5248 0.100932 33.116 0.100932L32.6049 0.201863H32.5027H32.4005H32.2983L31.9917 0.302795L30.8674 0.504658C30.4585 0.60559 30.1519 0.706522 29.7431 0.807453C28.9254 1.00932 28.2099 1.31211 27.4944 1.61491C27.0856 1.71584 26.779 1.9177 26.4723 2.11957C26.0635 2.32143 25.7569 2.42236 25.4502 2.72516C24.5303 3.02795 23.9171 3.43168 23.3038 3.93634C22.6906 4.44099 22.0773 4.94565 21.464 5.45031C21.1574 5.75311 20.8508 5.95497 20.6464 6.25776C20.3397 6.56056 20.1353 6.86335 19.8287 7.06522C19.3176 7.67081 18.8066 8.2764 18.3977 8.88199C18.0911 9.28572 17.7845 9.79037 17.4779 10.295H17.3757C17.069 10.396 16.8646 10.396 16.558 10.4969C16.0469 10.5978 15.5359 10.7997 15.0248 10.9006C14.0027 11.2034 13.0828 11.5062 12.0607 11.9099C11.5497 12.1118 11.1408 12.3137 10.6298 12.6165C10.221 12.8183 9.70991 13.1211 9.30107 13.4239C8.89223 13.7267 8.38118 14.0295 7.97234 14.3323C7.5635 14.6351 7.05245 15.0388 6.64361 15.4425L6.13256 15.9472L6.03035 16.0481L5.92814 16.1491L5.82593 16.3509L5.62151 16.6537C5.31488 17.0575 5.00825 17.5621 4.70162 18.0668C4.4972 18.5714 4.19057 19.0761 4.08836 19.5807C3.88394 20.0854 3.78173 20.5901 3.67952 21.1957C3.57731 21.7003 3.4751 22.3059 3.4751 22.8106C3.4751 23.3152 3.4751 23.9208 3.4751 24.4255C3.4751 24.9301 3.57731 25.5357 3.67952 26.0404C3.67952 26.3432 3.78173 26.545 3.88394 26.8478C2.96405 27.5543 2.14637 28.4627 1.53311 29.4721C1.32869 29.7748 1.12427 30.0776 1.02206 30.4814C0.817642 30.7842 0.715432 31.1879 0.613222 31.4907L0.408803 31.9953L0.306593 32.5C0.204383 32.9037 0.204383 33.2065 0.102173 33.6102C0.102173 34.014 0.102173 34.3168 0.102173 34.7205C0.102173 35.1242 0.204383 35.427 0.204383 35.8307C0.204383 36.2345 0.306593 36.5373 0.408803 36.8401C0.511013 37.0419 0.511013 37.2438 0.613222 37.4457C0.919852 38.6568 1.53311 39.7671 2.24858 40.7764C3.16847 41.9876 4.29278 42.9969 5.62151 43.9053C5.41709 45.2174 5.31488 46.4286 5.21267 47.7407C5.21267 49.2547 5.21267 50.7686 5.5193 52.1817C5.82593 53.6957 6.23477 55.1087 6.84803 56.5217C7.5635 57.9348 8.48339 59.2469 9.6077 60.2562C10.221 60.8618 10.9364 61.3665 11.6519 61.7702C12.5718 62.3758 13.4917 62.9814 14.5138 63.3851C14.7182 63.486 15.0248 63.587 15.2292 63.6879L15.6381 63.7888L15.8425 63.8898H15.9447H16.0469C16.558 63.9907 16.9668 64.1926 17.4779 64.2935C17.9889 64.3944 18.6022 64.4953 19.1132 64.5963C19.6243 64.5963 20.2375 64.6972 20.7486 64.6972C21.2596 64.6972 21.8729 64.6972 22.3839 64.6972L24.0193 64.4953L25.5524 64.1926C26.0635 64.0916 26.5745 63.8898 27.0856 63.7888C27.5966 63.6879 28.1077 63.3851 28.6187 63.2842C29.1298 63.0823 29.6408 62.8804 30.0497 62.6786C30.9696 62.2748 31.8895 61.6693 32.8093 61.1646L34.1381 60.3571C34.5469 60.0543 34.9558 59.7516 35.3646 59.4488C35.7734 59.146 36.1823 58.8432 36.5911 58.4394C37 58.1367 37.4088 57.8339 37.8176 57.4301L38.9419 56.3199C39.3508 55.9161 39.6574 55.6134 40.0663 55.2096C40.5773 54.705 40.9861 54.2003 41.395 53.6957C41.5994 53.7966 41.8038 53.9984 42.0082 54.0994C42.5193 54.4022 43.1326 54.705 43.6436 54.9068C44.2569 55.1087 44.7679 55.3106 45.3812 55.5124C45.6878 55.6134 45.9944 55.7143 46.3011 55.7143C46.6077 55.8152 46.9143 55.8152 47.221 55.9162C47.5276 55.9162 47.8342 56.0171 48.1408 56.0171C48.4475 56.0171 48.7541 56.0171 49.0607 56.0171C49.674 56.0171 50.2872 56.0171 50.9005 55.9162C52.127 55.7143 53.3535 55.4115 54.4779 55.0078L54.8867 54.8059L55.0911 54.705H55.1933H55.2955L55.3977 54.604L56.1132 54.2003C56.3176 54.0994 56.6243 53.8975 56.9309 53.6957C57.2375 53.4938 57.4419 53.2919 57.7486 53.0901L58.464 52.4845C58.6685 52.2826 58.8729 52.0807 59.0773 51.8789C59.2817 51.677 59.4861 51.4752 59.6906 51.1724C59.895 50.9705 60.0994 50.6677 60.2016 50.4658C60.5082 49.9612 60.8149 49.4565 61.1215 48.9519C61.4281 48.4472 61.6325 47.8416 61.837 47.337C62.0414 46.7314 62.2458 46.2267 62.348 45.6211C62.348 45.5202 62.348 45.4193 62.4502 45.4193C62.8591 45.6211 63.2679 45.722 63.6767 45.9239C64.5966 46.2267 65.6187 46.4286 66.6408 46.4286C67.6629 46.4286 68.5828 46.3276 69.6049 46.1258C70.116 46.0248 70.5248 45.823 71.0359 45.6211C71.4447 45.4193 71.9558 45.2174 72.3646 44.9146L72.6712 44.7127L72.9779 44.5109C73.1823 44.4099 73.3867 44.2081 73.5911 44.1071C74 43.8044 74.3066 43.5016 74.6132 43.0978C75.2265 42.3913 75.7375 41.5839 76.1464 40.6755C76.5552 39.7671 76.7596 38.8587 76.964 37.9503C77.0663 37.4457 77.0663 37.0419 77.0663 36.5373C77.0663 36.0326 77.0663 35.528 76.964 35.1242Z" fill="white"/>
</svg>
